REM MD5 be2f008f8dc0ad8a59f9ef7a815f3307
FILE "Ogre Battle - Limited Edition (USA).bin" BINARY
  TRACK 01 MODE2/2352
    INDEX 01 00:00:00
  TRACK 02 AUDIO
    INDEX 00 40:58:34
    INDEX 01 41:00:34
  TRACK 03 AUDIO
    INDEX 00 42:42:10
    INDEX 01 42:44:10
  TRACK 04 AUDIO
    INDEX 00 44:06:38
    INDEX 01 44:08:38
  TRACK 05 AUDIO
    INDEX 00 46:17:31
    INDEX 01 46:19:31
REM LEADOUT 49:49:38
